<?xml version="1.0" standalone="no"?><!DOCTYPE svg PUBLIC "-//W3C//DTD SVG 1.1//EN" "http://www.w3.org/Graphics/SVG/1.1/DTD/svg11.dtd"><svg t="1753321504501" class="icon" viewBox="0 0 1024 1024" version="1.1" xmlns="http://www.w3.org/2000/svg" p-id="15172" width="32" height="32" xmlns:xlink="http://www.w3.org/1999/xlink"><path d="M686.78689 156.282219c-4.650942 1.876232-9.367948 4.333832-14.091561 7.220852l22.461936 39.784052a37.921032 37.921032 0 0 1 14.230296-6.05151c7.168-1.407174 17.216413-1.374142 28.361497 4.664155l35.978736-40.087949c-24.153187-14.355819-58.678503-16.945548-86.960723-5.50978l0.019819-0.01982zM615.192774 253.575432c3.105032 7.901316 9.53311 17.877058 29.240155 13.193084 9.539716-2.266013 16.628439-15.089135 24.133368-28.672 1.070245-1.929084 2.153703-3.871381 3.250374-5.813677l-26.405987-46.773678c-21.900387 22.197677-37.207535 50.354374-30.224516 68.066271zM798.72 185.746994l-36.427974 40.616464c6.018477 10.636387 9.050839 23.155613 9.083871 37.498219l42.89569 7.458684c5.595665-36.368516-1.493058-65.053729-15.525161-85.573367h-0.01982zM790.746013 341.989574a290.043045 290.043045 0 0 0 15.287329-37.009342l-39.407484-6.85089c-0.237832 0.944723-0.495484 1.896052-0.746529 2.860593a229.025858 229.025858 0 0 1-7.967381 23.644491l32.834065 17.374968v-0.01982zM728.123458 383.530942l27.74049 16.370787a477.871071 477.871071 0 0 0 18.167742-27.614968l-30.568051-16.172593a495.530116 495.530116 0 0 1-15.340181 27.416774z" fill="#FFFFFF" p-id="15173"></path><path d="M743.463639 356.114168l30.568051 16.165987c6.362013-10.438194 11.891613-20.532852 16.694504-30.290581l-32.834065-17.374968a340.549368 340.549368 0 0 1-14.42849 31.499562zM814.271587 271.300542l-42.89569-7.458684c0.019819 10.471226-1.552516 21.906994-4.736826 34.267665l39.41409 6.85089a209.351845 209.351845 0 0 0 8.238245-33.659871h-0.019819zM783.994219 169.171406a70.398348 70.398348 0 0 0-10.246606-7.359587l-35.978736 40.087949a58.513342 58.513342 0 0 1 11.045988 7.848464 65.370839 65.370839 0 0 1 13.477161 16.60862l36.43458-40.609858a86.921084 86.921084 0 0 0-14.732387-16.575588zM645.410684 185.509161l26.405987 46.773678c6.223277-11.012955 13.325213-22.111794 23.340594-28.975897l-22.461936-39.784052c-9.486865 5.813677-18.874632 13.463948-27.297858 21.986271h0.013213z" fill="#FFDAA4" p-id="15174"></path><path d="M710.95329 231.774142l0.6144 0.528516-0.422813-0.733316-0.191587 0.198193z" fill="#000000" p-id="15175"></path><path d="M937.158194 841.404284c-2.444387-8.086297-7.445471-16.714323-14.917368-25.626426l-0.138736-0.165161c-2.470813-2.95969-8.059871-11.131871-20.281806-29.028749-13.127019-19.224774-20.328052-29.768671-26.861832-45.888413-3.937445-9.711484-6.289342-15.525161-7.729549-24.173006-1.519484-9.077265-1.4336-17.619406-1.387355-24.509935 0.052852-5.106787 0.118916-13.662142-1.347716-14.732388a6.375226 6.375226 0 0 0-3.184309-1.129703c-0.792774 0.033032-1.572335 0.508697-2.36511 1.050426-2.77471 1.856413-3.6864 5.344619-3.963871 6.765006a6.778219 6.778219 0 0 1-0.739923 1.981936 239.080877 239.080877 0 0 1-21.920206 59.68929 6.765006 6.765006 0 1 1-11.957678-6.295948 223.251819 223.251819 0 0 0 10.940284-24.087123 226.878761 226.878761 0 0 0 10.827975-37.4784c2.77471-21.953239 3.362684-44.183948 1.704464-66.157006l-0.079277-1.043819c-0.885265-11.627355-1.962116-25.844439-4.498994-41.541368-18.233806-7.478503-36.507252-11.382916-51.543535-1.896052-17.877058 11.283819-12.089806 29.39871-30.442529 40.596645-31.156026 19.006761-94.604387-4.670761-124.036129-49.614451-29.636542-45.2608-21.854142-107.658735 9.202787-145.738323a108.583639 108.583639 0 0 1 30.799277-25.877471c-62.378116-14.831484-114.542658 1.625187-140.730632 13.179871a213.672465 213.672465 0 0 0-62.734865 42.202013c5.463535 9.354735 8.192 21.365265 7.379407 32.3584-1.678039 22.726194-18.167742 38.462761-34.657445 43.074065a36.401548 36.401548 0 0 1-9.810581 1.426993c-0.984361 0-1.948903-0.066065-2.906839-0.151948a36.586529 36.586529 0 0 1-11.640568-3.144671 239.926503 239.926503 0 0 0-17.70529 53.75009 319.402116 319.402116 0 0 1 66.566607 14.600258 246.750968 246.750968 0 0 1 46.231948-5.9392 247.325729 247.325729 0 0 1 71.290219 8.119329 6.778219 6.778219 0 0 1 4.736826 8.50911 155.185548 155.185548 0 0 1-49.052903 74.388645c7.511535 8.931923 21.233135 27.94529 27.185548 53.485832 5.278555 22.613884 3.078606 55.850942 2.972904 57.25151-0.251045 3.726039-3.501419 6.533781-7.201033 6.295948a6.771613 6.771613 0 0 1-6.295948-7.201032c0.019819-0.330323 2.166916-32.583019-2.655794-53.248a97.934039 97.934039 0 0 0-1.909264-6.989626c-16.152774-7.05569-32.523561-11.838761-46.839742-7.511535-2.972903 0.898477-5.866529 2.180129-8.654452 3.944051-17.883665 11.277213-12.089806 29.39871-30.449135 40.590039-31.156026 19.013368-94.604387-4.664155-124.036129-49.607845-24.3712-37.227355-23.43969-86.062245-5.040723-123.408516-5.463535 0.673858-10.887432 1.539303-16.27169 2.622761a222.736516 222.736516 0 0 0-32.457497 9.116903 6.778219 6.778219 0 0 1-8.674271-4.043148 6.7584 6.7584 0 0 1 4.043149-8.674271 237.316955 237.316955 0 0 1 34.432825-9.678452c3.673187-0.72671 7.359587-1.367535 11.065807-1.929084a136.69409 136.69409 0 0 1 12.400309-43.298683c-3.706219 0.165161-7.399226 0.574761-11.012954 1.202374-24.424052 4.294194-40.530581 18.313084-56.121807 31.895948-21.722013 18.914271-34.92831 37.38591-45.551484 52.217394-12.354065 17.269265-24.021058 33.560774-31.988438 52.11169-9.843613 22.884748-18.735897 61.387148-5.291768 114.833342 0.336929 1.354323 0.251045 2.77471-0.237832 4.076181-3.739252 9.810581-12.142658 38.885574-6.157213 55.414916 4.921806 13.60929 21.840929 23.915355 50.288309 30.627509 32.629265 6.144 65.800258 9.711484 98.574865 10.570323 30.178271 0.792774 67.729342 1.796955 114.443561-9.031019a367.2064 367.2064 0 0 0 13.364852-3.369291 192.525213 192.525213 0 0 0-44.434994-8.046658c-7.002839-0.673858-5.879742-10.960103 1.123097-10.081445a198.286039 198.286039 0 0 1 51.821006 15.716749 364.986632 364.986632 0 0 0 22.376052-7.412439 192.756439 192.756439 0 0 0-68.218219-17.064465c-7.002839-0.673858-5.879742-10.940284 1.123096-10.081445 25.031845 3.963871 49.198245 12.803303 70.867407 25.725523 1.103277-0.422813 2.199948-0.825806 3.303226-1.255226 1.294865-0.50209 2.721858-0.587974 4.069574-0.264258 0.257652 0.066065 15.412852 3.699613 41.765987 6.969806 1.651613-12.023742 7.319948-25.342348 15.1552-35.72769 13.146839-17.441032 31.070142-25.012026 45.802529-24.827045 6.718761 0.066065 12.770271 1.757316 17.408 4.855742 17.810994 11.871794 16.694503 45.749677 9.823794 60.515097 45.921445-1.334503 60.231019-11.026168 61.334296-11.838762a6.091148 6.091148 0 0 1 2.299046-1.400568c0.508697-0.878658 1.202374-1.678039 2.094245-2.266012 0.118916-0.085884 13.027923-8.746942 28.962684-25.765162 11.99071-12.803303 6.626271-20.750865 5.985445-21.616309a6.328981 6.328981 0 0 1-1.585549-5.053936c0.184981-1.915871 1.334503-3.468387 2.873807-4.624516 1.268439-0.924903 5.509781-4.446142 6.322374-10.160723 0.462452-3.197523-0.013213-6.058116-1.420387-8.48929-0.303897-0.541729-3.177703-5.285161-8.654452-5.972232a11.700026 11.700026 0 0 0-6.771613 1.268439 6.765006 6.765006 0 0 1-9.856825-5.714581c0-0.356748-0.158555-2.153703-1.426994-3.283407-0.878658-0.792774-2.787923-1.658219-4.39329-0.779561a3.752465 3.752465 0 0 0-1.849807 2.972903c0.244439 1.374142 0.310503 2.424568 0.310503 2.913446a6.765006 6.765006 0 0 1-13.331819 1.777135 17.374968 17.374968 0 0 1-0.488877-3.197523c-0.323716-1.149523-0.977755-2.602942-2.36511-3.534451-0.237832-0.151948-2.351897-1.539303-4.076181-0.924903-1.697858 0.601187-2.893626 2.801135-2.840774 5.219096 0.013213 1.493058-0.462452 2.880413-1.275045 4.010117 0.528516 0.72671 1.070245 1.420387 1.572336 2.180129a61.043613 61.043613 0 0 1 7.412438 15.393032 6.778219 6.778219 0 0 1-6.447897 8.832826c-2.853987 0-5.5296-1.829987-6.44129-4.703794a47.057755 47.057755 0 0 0-5.747613-11.957677c-10.471226-15.578013-24.9856-20.856568-41.799019-26.993962-11.620748-4.228129-23.611458-8.614813-35.080258-16.800206-11.924645-8.522323-18.200774-23.816258-17.678865-43.080671a6.771613 6.771613 0 0 1 6.765007-6.580026h0.191587c3.732645 0.099097 6.679123 3.217342 6.580026 6.949987-0.237832 8.476077 1.010787 23.84929 12.003922 31.710968 9.962529 7.128361 21.0944 11.184723 31.849703 15.108955 12.387097 4.518813 25.038452 9.149935 35.978736 18.339509 1.915871-4.80289 5.602271-8.628026 10.385342-10.339096 7.650271-2.735071 14.342606 1.189161 16.225445 2.4576 0.231226 0.151948 0.455845 0.31711 0.673858 0.469058a16.648258 16.648258 0 0 1 3.025755-2.094245c6.309161-3.415535 14.296361-2.371716 19.858993 2.602942 1.585548 1.420387 2.75489 2.992723 3.600517 4.532025a24.602426 24.602426 0 0 1 7.108542-0.151948c11.700026 1.473239 17.626013 10.794942 18.689651 12.638142 2.028181 3.514632 4.20831 9.354735 3.09182 17.163561a28.460594 28.460594 0 0 1-7.286917 15.161807c2.860594 7.762581 2.75489 20.176103-9.8304 33.626838a225.478194 225.478194 0 0 1-24.285316 22.528c9.995561 2.332077 25.864258 4.868955 46.159278 4.274375 34.862245-1.030606 63.514426-29.649755 63.798503-29.933833a6.784826 6.784826 0 0 1 8.357161-1.017393 176.253523 176.253523 0 0 0 41.984 18.828387c0.323716 0.099097 33.118142 9.605781 56.630503 1.757316 3.237161-1.083458 5.463535-2.517058 6.104362-3.924232 0.660645-1.473239 0.218013-3.448568-0.303897-5.192671l0.052852-0.085884z m-723.67071-8.152361c-14.329394 0-25.930323-6.679123-25.930323-14.930581 0-8.258065 11.600929-14.937187 25.930323-14.937187 14.322787 0 25.930323 6.672516 25.930322 14.93058 0 8.258065-11.607535 14.937187-25.930322 14.937188z m20.579097-43.133523c-13.391277 0-24.232465-13.496981-24.232465-30.158452 0-16.661471 10.8544-30.158452 24.232465-30.158451 8.158968 0 15.346787 5.020903 19.740077 12.684387a11.508439 11.508439 0 0 0-5.073755-1.109884c-4.512206 0-8.165574 2.266013-8.165574 5.073755s3.653368 5.073755 8.165574 5.073755c3.534452 0 6.513961-1.407174 7.663484-3.349471 1.235406 3.620335 1.929084 7.610632 1.929084 11.805729 0 16.661471-10.861006 30.158452-24.239071 30.158451l-0.019819-0.019819z m45.419354 10.979923l-2.246193 16.509522 0.046245 0.033032 9.724697 9.592568a2.536877 2.536877 0 0 1-3.547665 3.620336l-8.291096-8.172181a336.202323 336.202323 0 0 0-7.39262 4.82271 2.55009 2.55009 0 0 1-3.554271-0.462452 2.503845 2.503845 0 0 1 0.4096-3.514632c0.70689-0.561548 6.46111-4.261161 9.216-6.025084l2.305652-16.846452q0.033032-0.066065 0.033032-0.099096a11.336671 11.336671 0 0 1-2.95969-1.823381c-2.642581-2.153703-5.430503-4.399897-5.179458-7.002839 0.336929-3.455174 5.833497-5.820284 10.147509-5.853316 4.532026-0.033032 10.14751 2.470813 10.438194 5.853316 0.218013 2.655794-2.926658 4.82271-7.05569 7.663484-0.772955 0.535123-1.453419 0.91169-2.114065 1.162736 0.033032 0.184981 0.066065 0.369961 0.033032 0.561548l-0.013213-0.019819z m47.037936-39.7312c0-16.661471 10.861006-30.158452 24.245677-30.158452 9.400981 0 17.533523 6.679123 21.556852 16.423639a11.495226 11.495226 0 0 0-5.205884-1.202375c-4.518813 0-8.172181 2.266013-8.172181 5.073755s3.653368 5.073755 8.172181 5.073755c3.078606 0 5.7344-1.063639 7.121755-2.64258 0.488877 2.391535 0.772955 4.862348 0.772955 7.432258 0 16.661471-10.8544 30.158452-24.232465 30.158451-13.384671 0-24.245677-13.496981-24.245677-30.158451h-0.013213z m56.663535 79.786116c-14.322787 0-25.930323-6.698942-25.930322-14.937187s11.607535-14.930581 25.930322-14.930581c14.329394 0 25.930323 6.672516 25.930323 14.930581 0 8.258065-11.600929 14.930581-25.930323 14.93058z m94.551536-17.493884a192.115613 192.115613 0 0 0-51.114116 1.169342c-6.983019 0.845626-8.119329-9.4208-1.083458-10.094658 35.370942-2.153703 71.144877 5.3248 102.466064 21.424722a195.517935 195.517935 0 0 0-50.26849-12.499406z" fill="#FFFFFF" p-id="15176"></path><path d="M642.450994 412.387923c-31.050323 38.072981-38.832723 100.470916-9.196181 145.738322 29.425135 44.950297 92.88671 68.614606 124.029522 49.607845 18.352723-11.197935 12.572077-29.312826 30.449136-40.596645 15.049497-9.493471 33.322942-5.602271 51.536929 1.896052-5.172852-31.975226-16.47649-70.127484-44.705858-105.346478-16.727535-20.876387-53.598142-58.354787-112.706065-74.963406-2.906839-0.812594-5.780645-1.539303-8.634632-2.219768a108.86111 108.86111 0 0 0-30.805884 25.884078h0.033033zM342.319897 705.83329c29.431742 44.96351 92.899923 68.627819 124.036129 49.614452 18.352723-11.197935 12.565471-29.312826 30.449135-40.596645 2.77471-1.757316 5.661729-3.025755 8.654452-3.944052 14.309574-4.327226 30.686968 0.462452 46.839742 7.511536-8.50911-27.449806-26.491871-45.346684-26.676852-45.531665a6.718761 6.718761 0 0 1-2.008361-5.258735c0.118916-1.962116 1.096671-3.772284 2.655793-4.974658a141.100594 141.100594 0 0 0 43.516697-54.70142c-10.484439 8.000413-24.912929 15.729961-43.245832 18.114891a88.533058 88.533058 0 0 1-27.674426-0.812594 6.791432 6.791432 0 0 1-5.41729-7.901316c0.700284-3.666581 4.228129-6.084542 7.901316-5.410684 7.835252 1.473239 15.716748 1.711071 23.446297 0.693677 17.018219-2.213161 30.158452-9.909677 39.288568-17.421212a232.481032 232.481032 0 0 0-50.407226-3.871381c-15.254297 0.508697-30.541626 2.536877-45.458994 6.018477a6.857497 6.857497 0 0 1-3.739251-0.18498 305.105755 305.105755 0 0 0-72.545446-15.260904h-0.151948a307.094297 307.094297 0 0 0-47.665548-0.284077c-2.285832 0.218013-4.551845 0.475665-6.837678 0.746529-18.385755 37.346271-19.330477 86.174555 5.040723 123.408516v0.046245zM624.283252 805.577497c-4.631123-3.091819-10.689239-4.769858-17.401394-4.849136-14.732387-0.151948-32.629265 7.425652-45.769497 24.827045-7.835252 10.385342-13.496981 23.697342-15.1552 35.721084 17.976155 2.219768 41.151587 4.267768 68.363562 4.855742 7.174606 0.151948 13.741419 0.118916 19.792929-0.046245 6.883923-14.772026 7.980594-48.64991-9.8304-60.521703v0.013213zM432.696155 518.738581a36.467613 36.467613 0 0 0 9.81058-1.413781c16.489703-4.624516 32.986013-20.347871 34.657446-43.080671 0.812594-10.993135-1.915871-23.003665-7.3728-32.3584-19.317265 18.689652-35.688052 41.356387-48.953807 67.947355-0.924903 1.856413-1.810168 3.732645-2.688826 5.615484 3.6864 1.651613 7.597419 2.77471 11.640568 3.144671 0.964542 0.085884 1.929084 0.151948 2.906839 0.151948z" fill="#FFDAA4" p-id="15177"></path><path d="M950.113445 837.51969c-2.95969-9.863432-8.852645-20.096826-17.507097-30.416103l-0.138735-0.165161c-2.048-2.4576-8.231639-11.521652-19.515458-28.050994-13.496981-19.75329-19.707045-29.088206-25.474478-43.351535-3.792103-9.354735-5.701368-14.051923-6.903742-21.226529-1.32129-7.914529-1.255226-15.478916-1.195767-22.158039 0.099097-11.112052 0.184981-20.704619-7.022658-25.864258-5.139819-3.6864-10.385342-3.699613-11.363097-3.653368a17.540129 17.540129 0 0 0-3.739252 0.561549c1.367535-17.526916 1.400568-35.146323 0.085884-52.607175l-0.085884-1.043819c-2.77471-36.864-7.412439-98.568258-52.131509-154.346529a240.587148 240.587148 0 0 0-40.021884-39.20929c93.844645-129.090065 77.011406-218.752826 29.953651-259.620336-28.738065-24.972387-75.875097-31.44671-114.621935-15.782813-42.5984 17.223019-96.943071 78.748903-81.00831 119.167175 8.152361 20.664981 25.500903 28.98911 48.887742 23.452903 16.806813-3.990297 26.075665-20.731045 35.027407-36.936671 8.522323-15.393032 16.555768-29.953652 29.293006-32.457497 8.337342-1.645006 16.694503 1.235406 24.899716 8.542142 37.703019 33.5872 5.410684 105.339871-28.315251 159.605264l-0.898478 1.4336a231.027613 231.027613 0 0 0-22.798864-7.729548c-70.266219-19.75329-129.446813-1.215587-158.488775 11.607536-51.233032 22.613884-91.050116 61.803355-118.334761 116.484954a253.733987 253.733987 0 0 0-21.854142 64.227923 318.900026 318.900026 0 0 0-27.284645-0.561548 6.011871 6.011871 0 0 0-1.651613-0.165162c-4.82271 0.132129-9.645419 0.422813-14.468129 0.858839h-0.184981a123.038555 123.038555 0 0 1 15.525162-44.791742 6.804645 6.804645 0 0 0 0.138735-6.560206 6.804645 6.804645 0 0 0-5.483355-3.600517 101.858271 101.858271 0 0 0-24.978993 1.202375c-28.130271 4.935019-46.482994 20.922632-62.6688 35.014193-22.924387 19.951484-36.639381 39.136619-47.685368 54.569291-12.208723 17.057858-24.840258 34.716903-33.402219 54.608929-10.53729 24.509935-20.129858 65.377445-6.474323 121.4464a165.954065 165.954065 0 0 0-6.784826 26.187974 197.942503 197.942503 0 0 0-96.969496-0.099097 193.905961 193.905961 0 0 1 95.727483 9.618994c-0.198194 2.378323-0.330323 4.769858-0.369961 7.154787a198.127484 198.127484 0 0 0-97.194116 20.757471 193.912568 193.912568 0 0 1 97.722632-10.946891c0.455845 3.534452 1.195768 6.969806 2.351897 10.154116v0.033033a200.043355 200.043355 0 0 0-47.751432 3.6864 197.869832 197.869832 0 0 0-49.627665 17.044645c32.219665-12.426735 67.643458-16.099923 101.48831-10.378736 0.508697 0.079277 0.990968 0.066065 1.466632 0 9.526503 13.001497 27.469626 22.494968 54.483407 28.850375l0.290684 0.066064a636.657135 636.657135 0 0 0 100.880516 10.827974c8.456258 0.224619 17.467458 0.455845 27.093058 0.455845 25.626426 0 55.580077-1.691252 90.746219-9.843612a385.090065 385.090065 0 0 0 31.407071-8.707304 195.927535 195.927535 0 0 1 31.010684 17.064465 194.361806 194.361806 0 0 0-26.590968-18.517884 372.669935 372.669935 0 0 0 15.393032-5.536207c2.642581 0.594581 7.643665 1.651613 14.778633 2.906839 1.189161 0.766348 2.371716 1.519484 3.534451 2.305652-0.878658-0.72671-1.783742-1.440206-2.688825-2.147097 18.8416 3.263587 51.860645 7.729548 95.364129 8.674271 55.296 1.222194 78.583742-8.086297 86.755922-12.783484 8.000413 2.635974 29.312826 8.423226 60.184774 7.524749 32.503742-0.964542 59.319329-21.702194 69.096878-30.3104a189.182348 189.182348 0 0 0 40.781626 17.626012c1.499665 0.436026 37.154684 10.834581 64.763045 1.618581 7.121755-2.36511 11.871794-6.144 14.157626-11.191329 2.840774-6.295948 1.010787-12.367277 0.323716-14.65311l0.066064 0.066065z m-18.775535 13.001497c-23.532181 7.848465-56.306787-1.651613-56.630504-1.757316a176.154426 176.154426 0 0 1-41.984-18.828387 6.7584 6.7584 0 0 0-8.357161 1.017393c-0.284077 0.290684-28.936258 28.909832-63.798503 29.940439-20.295019 0.607794-36.163716-1.942297-46.159277-4.280981a225.874581 225.874581 0 0 0 24.291922-22.528c12.578684-13.430916 12.684387-25.864258 9.823794-33.626838a28.440774 28.440774 0 0 0 7.293522-15.1552c1.11649-7.815432-1.070245-13.648929-3.105032-17.170168-1.057032-1.863019-6.976413-11.164903-18.683045-12.638142a24.067303 24.067303 0 0 0-7.108542 0.151948 16.853058 16.853058 0 0 0-3.600516-4.532025c-5.562632-4.968052-13.530013-6.018477-19.858994-2.602942-1.096671 0.594581-2.114065 1.301471-3.025755 2.100851a9.361342 9.361342 0 0 0-0.673858-0.475664c-1.882839-1.268439-8.594994-5.192671-16.225445-2.450994-4.783071 1.717677-8.469471 5.5296-10.385342 10.332491-10.927071-9.182968-23.591639-13.820697-35.978735-18.332904-10.755303-3.924232-21.887174-7.9872-31.843097-15.108954-10.999742-7.848465-12.248361-23.241497-12.010529-31.710968a6.765006 6.765006 0 0 0-6.580026-6.956594h-0.191587c-3.653368 0-6.659303 2.906839-6.765006 6.580026-0.52191 19.271019 5.747613 34.578168 17.678864 43.080671 11.4688 8.192 23.479329 12.572077 35.080258 16.800206 16.813419 6.124181 31.327794 11.415948 41.792413 26.993962 2.444387 3.633548 4.366865 7.643665 5.754219 11.957677a6.7584 6.7584 0 1 0 12.882581-4.129032 60.726503 60.726503 0 0 0-7.399226-15.393032c-0.508697-0.759742-1.057032-1.466632-1.578942-2.180129 0.812594-1.129703 1.288258-2.503845 1.268439-4.00351-0.033032-2.424568 1.169342-4.624516 2.840774-5.23231 1.73089-0.621006 3.844955 0.766348 4.082787 0.93151 1.387355 0.93151 2.048 2.404748 2.36511 3.534452 0.066065 1.070245 0.237832 2.133884 0.488877 3.197522a6.765006 6.765006 0 0 0 13.33182-1.777135c0-0.488877-0.066065-1.539303-0.303897-2.906839a3.712826 3.712826 0 0 1 1.8432-2.972903c1.605368-0.865445 3.501419 0 4.39329 0.772955 1.268439 1.13631 1.407174 2.926658 1.426994 3.283406a6.751794 6.751794 0 0 0 9.856826 5.714581c1.235406-0.640826 3.759071-1.651613 6.765006-1.268439 5.463535 0.693677 8.343948 5.430503 8.654452 5.972232 1.413781 2.437781 1.882839 5.278555 1.426993 8.489291-0.825806 5.721187-5.053935 9.235819-6.322374 10.167329-1.559123 1.13631-2.688826 2.708645-2.880413 4.617909a6.276129 6.276129 0 0 0 1.585549 5.060542c0.654039 0.858839 6.011871 8.813006-5.978839 21.61631-15.954581 17.011613-28.843768 25.69249-28.962684 25.758555-0.891871 0.594581-1.585548 1.387355-2.094245 2.266013a5.840103 5.840103 0 0 0-2.299045 1.407174c-1.103277 0.812594-15.426065 10.504258-61.334297 11.838761-6.038297 0.171768-12.598503 0.198194-19.786323 0.052852-27.198761-0.594581-50.394013-2.642581-68.376774-4.855742h-0.046245c-26.353135-3.263587-41.508335-6.916955-41.759381-6.989626a6.778219 6.778219 0 0 0-4.07618 0.264258c-1.103277 0.429419-2.199948 0.839019-3.303226 1.255226a199.184516 199.184516 0 0 0-70.867407-25.718916c-7.002839-0.865445-8.119329 9.400981-1.123096 10.081445a192.756439 192.756439 0 0 1 68.224825 17.064464c-7.359587 2.708645-14.83809 5.172852-22.382658 7.399226a199.078813 199.078813 0 0 0-51.821006-15.703535c-7.002839-0.865445-8.125935 9.400981-1.123097 10.081445 14.970219 0.91169 29.927226 3.620335 44.434994 8.046658-4.426323 1.202374-8.892284 2.338684-13.358245 3.36929-46.707613 10.827974-84.271897 9.823794-114.443562 9.03102a621.217858 621.217858 0 0 1-98.581471-10.570323c-28.447381-6.712155-45.379716-17.018219-50.281703-30.634116-5.992052-16.542555 2.417961-45.617548 6.157213-55.414916 0.488877-1.301471 0.574761-2.721858 0.231226-4.076181-13.444129-53.446194-4.545239-91.941987 5.298374-114.826735 7.967381-18.564129 19.634374-34.849032 31.981832-52.118297 10.623174-14.831484 23.836077-33.283303 45.551484-52.210787 15.578013-13.569652 31.697755-27.608361 56.121807-31.909162a85.28929 85.28929 0 0 1 11.012954-1.195767c-2.556697 5.364439-4.756645 10.874219-6.580025 16.509522a137.903071 137.903071 0 0 0-5.813678 26.789162c-3.706219 0.561548-7.412439 1.202374-11.065806 1.929083-11.6736 2.338684-23.25471 5.602271-34.439433 9.678452a6.771613 6.771613 0 0 0 4.637729 12.717419 223.430194 223.430194 0 0 1 32.457497-9.116903 218.832103 218.832103 0 0 1 23.102762-3.36929 302.885987 302.885987 0 0 1 47.665548 0.290684h0.151948a305.284129 305.284129 0 0 1 72.545445 15.260903c1.202374 0.402994 2.490632 0.469058 3.739252 0.184981a232.223381 232.223381 0 0 1 45.4656-6.025084c16.866271-0.554942 33.758968 0.759742 50.407226 3.877987-9.136723 7.504929-22.276955 15.201445-39.295174 17.421213-7.729548 1.010787-15.611045 0.772955-23.439691-0.693678a6.765006 6.765006 0 1 0-2.490632 13.312 88.651974 88.651974 0 0 0 27.681032 0.812594c18.326297-2.384929 32.754787-10.114477 43.245833-18.11489a141.133626 141.133626 0 0 1-43.523304 54.701419 6.784826 6.784826 0 0 0-0.640825 10.233393c0.198194 0.184981 18.167742 18.075252 26.670245 45.531665 0.713497 2.266013 1.354323 4.584877 1.915871 6.983019 4.82271 20.671587 2.669006 52.924284 2.655793 53.248a6.7584 6.7584 0 1 0 13.496981 0.911691c0.099097-1.400568 2.299045-34.617806-2.972903-57.25151-5.959019-25.540542-19.674013-44.540697-27.185549-53.485832a154.379561 154.379561 0 0 0 21.338839-21.748439 155.958503 155.958503 0 0 0 27.714065-52.640206 6.771613 6.771613 0 0 0-4.736826-8.50911 247.365368 247.365368 0 0 0-71.296826-8.119329 246.69151 246.69151 0 0 0-46.225342 5.9392 319.157677 319.157677 0 0 0-66.579819-14.600258 241.36671 241.36671 0 0 1 17.711896-53.750091c0.878658-1.882839 1.757316-3.759071 2.688826-5.615483 13.259148-26.590968 29.649755-49.277523 48.953807-67.947355a213.342142 213.342142 0 0 1 62.734864-42.202013c26.161548-11.534865 78.332697-28.011355 140.730632-13.179871 2.853987 0.680465 5.7344 1.407174 8.641239 2.219768 59.081497 16.608619 95.971923 54.093626 112.699458 74.963406 28.229368 35.212387 39.506581 73.377858 44.705858 105.346478 2.536877 15.696929 3.620335 29.920619 4.492387 41.541367l0.092491 1.04382a330.256516 330.256516 0 0 1-1.717678 66.157006 227.757419 227.757419 0 0 1-10.814761 37.4784 229.812026 229.812026 0 0 1-10.94689 24.087123 6.771613 6.771613 0 0 0 5.972232 9.909677c2.437781 0 4.789677-1.32129 5.985445-3.613729 4.347045-8.258065 8.258065-16.846452 11.607536-25.527329a243.328826 243.328826 0 0 0 10.319277-34.168568 6.580026 6.580026 0 0 0 0.739923-1.981935c0.264258-1.413781 1.189161-4.901987 3.957264-6.7584 0.792774-0.528516 1.585548-1.017394 2.371716-1.057032q1.651613 0.059458 3.171097 1.136309c1.493058 1.070245 1.413781 9.6256 1.360929 14.732387-0.066065 6.87071-0.132129 15.432671 1.387355 24.509936 1.440206 8.647845 3.805316 14.44831 7.729548 24.173006 6.527174 16.119742 13.734813 26.657032 26.861832 45.888413 12.208723 17.896877 17.791174 26.069058 20.281807 29.028749l0.132129 0.171767c7.458684 8.912103 12.486194 17.540129 14.917368 25.61982 0.528516 1.744103 0.964542 3.726039 0.303896 5.192671-0.640826 1.407174-2.853987 2.840774-6.104361 3.924232l-0.066064 0.033032z m-165.458581-549.551071c0.264258-0.964542 0.508697-1.915871 0.746529-2.860593 3.171097-12.38049 4.769858-23.796439 4.730219-34.267665-0.033032-14.322787-3.058787-26.842013-9.077264-37.498219a65.119794 65.119794 0 0 0-13.483768-16.60862 58.427458 58.427458 0 0 0-11.045987-7.848464c-11.131871-6.038297-21.193497-6.077935-28.368103-4.670761a37.808723 37.808723 0 0 0-14.22369 6.058116c-10.015381 6.87071-17.11071 17.962942-23.340594 28.975896l-3.250374 5.813678c-7.504929 13.582865-14.613471 26.425806-24.133368 28.672-19.707045 4.690581-26.115303-5.291768-29.246761-13.193084-6.983019-17.70529 8.324129-45.8752 30.224516-68.066271 8.423226-8.522323 17.810994-16.165987 27.304464-21.986271a95.113084 95.113084 0 0 1 14.084955-7.220852c28.269006-11.435768 62.787716-8.852645 86.960723 5.509781 3.673187 2.180129 7.121755 4.637729 10.253213 7.359587a86.940903 86.940903 0 0 1 14.732387 16.582194c14.03871 20.513032 21.120826 49.198245 15.525161 85.566761a209.094194 209.094194 0 0 1-8.238245 33.659871 289.930735 289.930735 0 0 1-15.287329 37.009342 392.449652 392.449652 0 0 1-16.694503 30.290581 481.200723 481.200723 0 0 1-18.167742 27.621574l-27.747097-16.370787a481.762271 481.762271 0 0 0 15.346787-27.416775 344.288619 344.288619 0 0 0 14.42849-31.499561c3.250374-8.218426 5.906168-16.119742 7.967381-23.651097v0.039639z" fill="#000000" p-id="15178"></path><path d="M924.315252 679.856723a70.35871 70.35871 0 0 0 14.22369 16.317935 5.199277 5.199277 0 0 0 7.306735-0.627613 5.192671 5.192671 0 0 0-0.621006-7.300129 59.722323 59.722323 0 0 1-12.129445-13.906581 60.667045 60.667045 0 0 1-8.746942-24.661883 5.179458 5.179458 0 1 0-10.286245 1.288258c1.288258 10.266426 4.82271 20.261987 10.273032 28.903225l-0.019819-0.013212zM916.433755 707.372594c1.017394 0.984361 2.312258 1.493058 3.620335 1.493058 1.301471 0 2.688826-0.528516 3.699613-1.559123a5.166245 5.166245 0 0 0-0.066064-7.326555 44.937084 44.937084 0 0 1-13.173265-37.987097 5.205884 5.205884 0 0 0-4.498993-5.800464 5.172852 5.172852 0 0 0-5.787252 4.492387 55.969858 55.969858 0 0 0 3.567484 27.866013 55.144052 55.144052 0 0 0 12.618322 18.828387h0.01982zM375.035045 761.380335c0-2.56991-0.290684-5.040723-0.779561-7.425651-1.387355 1.559123-4.043148 2.642581-7.121755 2.642581-4.512206 0-8.165574-2.266013-8.165574-5.073755s3.653368-5.073755 8.165574-5.073755c1.995148 0 3.792103 0.455845 5.21249 1.195768-4.029935-9.73791-12.162477-16.423639-21.570064-16.423639-13.391277 0-24.239071 13.496981-24.239071 30.158451 0 16.661471 10.861006 30.158452 24.245677 30.158452 13.378065 0 24.232465-13.496981 24.232465-30.158452h0.019819zM248.732903 751.50369c-4.512206 0-8.165574-2.266013-8.165574-5.073755s3.653368-5.073755 8.165574-5.073754c1.929084 0 3.673187 0.422813 5.073755 1.11649-4.39329-7.663484-11.587716-12.684387-19.740077-12.684387-13.391277 0-24.239071 13.496981-24.239071 30.158451 0 16.661471 10.861006 30.158452 24.245677 30.158452 13.378065 0 24.232465-13.496981 24.232465-30.158452 0-4.195097-0.693677-8.172181-1.929084-11.805729-1.149523 1.942297-4.122426 3.349471-7.663484 3.349471l0.019819 0.013213zM288.616052 791.710555c-0.284077-3.382503-5.899561-5.886348-10.438194-5.853316-4.307406 0.033032-9.803974 2.404748-10.14751 5.853316-0.251045 2.602942 2.523665 4.855742 5.179458 7.002839 1.235406 0.990968 2.213161 1.539303 2.959691 1.82338 0 0.039639-0.033032 0.066065-0.033032 0.105703l-2.299046 16.846452c-2.761497 1.757316-8.522323 5.463535-9.222606 6.018477a2.517058 2.517058 0 0 0-0.402994 3.521239 2.576516 2.576516 0 0 0 3.547665 0.455845c0.495484-0.369961 4.195097-2.77471 7.399226-4.822709l8.28449 8.17218a2.536877 2.536877 0 0 0 3.554271-3.620335l-9.731303-9.592568q-0.033032-0.013213-0.046245-0.033032l2.246193-16.509523c0.033032-0.184981 0-0.369961-0.033032-0.554942 0.673858-0.257652 1.334503-0.640826 2.114064-1.169342 4.109213-2.840774 7.273703-5.00769 7.055691-7.663484l0.013213 0.01982z" fill="#000000" p-id="15179"></path><path d="M383.207226 811.278865c-14.329394 0-25.930323 6.685729-25.930323 14.937187 0 8.258065 11.600929 14.930581 25.930323 14.93058 14.322787 0 25.923716-6.692335 25.923716-14.93058 0-8.238245-11.600929-14.930581-25.923716-14.930581zM239.431019 818.314735q0 0.733316-0.125522 1.466633-0.125523 0.72671-0.369962 1.453419-0.251045 0.713497-0.621006 1.420387-0.369961 0.700284-0.858839 1.374142-0.488877 0.680465-1.083458 1.327897-0.601187 0.647432-1.314684 1.255226-0.70689 0.6144-1.512877 1.182555-0.805987 0.561548-1.711071 1.083458-0.898477 0.515303-1.882839 0.984361-0.990968 0.462452-2.048 0.872052t-2.180129 0.753135q-1.123097 0.343535-2.299045 0.627613-1.175948 0.277471-2.398142 0.495484-1.215587 0.211406-2.464206 0.356748-1.255226 0.138735-2.517058 0.211407-1.268439 0.072671-2.543484 0.072671t-2.543484-0.066065q-1.268439-0.079277-2.510452-0.218013-1.255226-0.145342-2.470813-0.356748-1.222194-0.218013-2.398142-0.495484-1.175948-0.284077-2.299045-0.627613-1.123097-0.343535-2.180129-0.753135-1.057032-0.4096-2.048-0.872052-0.984361-0.462452-1.882838-0.990968-0.905084-0.515303-1.711071-1.076851-0.805987-0.568155-1.519484-1.182555-0.70689-0.607794-1.301471-1.255226-0.601187-0.647432-1.090065-1.32129-0.488877-0.680465-0.858838-1.387355-0.369961-0.700284-0.6144-1.420387-0.251045-0.720103-0.376568-1.45342-0.125523-0.72671-0.125523-1.453419 0-0.739923 0.125523-1.466632t0.376568-1.45342q0.244439-0.720103 0.6144-1.420387t0.858838-1.380748q0.488877-0.673858 1.090065-1.32129 0.594581-0.647432 1.308077-1.255226 0.70689-0.6144 1.512878-1.182555 0.805987-0.568155 1.711071-1.083458 0.898477-0.52191 1.882838-0.990968 0.990968-0.462452 2.048-0.865445 1.057032-0.4096 2.180129-0.753136 1.123097-0.350142 2.299045-0.627612 1.175948-0.284077 2.398142-0.495484 1.215587-0.211406 2.464207-0.356749 1.255226-0.145342 2.517058-0.218013 1.268439-0.066065 2.543484-0.066064t2.543484 0.066064q1.268439 0.072671 2.510451 0.218013 1.255226 0.145342 2.470813 0.356749 1.222194 0.211406 2.398142 0.495484 1.175948 0.277471 2.299045 0.627612 1.123097 0.343535 2.180129 0.753136 1.057032 0.402994 2.048 0.872052 0.984361 0.462452 1.882839 0.984361 0.905084 0.515303 1.717677 1.083458 0.799381 0.568155 1.506271 1.175948 0.713497 0.6144 1.314684 1.255226 0.594581 0.654039 1.083458 1.327897 0.488877 0.680465 0.858839 1.387355 0.369961 0.693677 0.621006 1.41378 0.244439 0.72671 0.369962 1.45342 0.125523 0.72671 0.125522 1.460025z" fill="#FFBBC6" p-id="15180"></path><path d="M425.554581 814.747252c-7.035871 0.680465-5.899561 10.927071 1.083458 10.101264a192.109006 192.109006 0 0 1 51.120722-1.169342c17.097497 1.876232 34.062865 6.104361 50.268491 12.499407-31.327794-16.099923-67.101729-23.578426-102.466065-21.431329z" fill="#000000" p-id="15181"></path></svg>